<?xml version="1.0" encoding="iso-8859-1"?>
<!-- Generator: Adobe Illustrator 19.0.0, SVG Export Plug-In . SVG Version: 6.00 Build 0)  -->
<svg version="1.1" id="Capa_1" xmlns="http://www.w3.org/2000/svg" xmlns:xlink="http://www.w3.org/1999/xlink" x="0px" y="0px"
	 viewBox="0 0 511.999 511.999" style="enable-background:new 0 0 511.999 511.999;" xml:space="preserve">
<g>
	<g>
		<path d="M504.396,382.013H328.234H183.766H7.604c-4.2,0-7.604,3.405-7.604,7.604v17.965c0,34.536,28.097,62.633,62.633,62.633
			h59.104c4.2,0,7.604-3.405,7.604-7.604s-3.404-7.604-7.604-7.604H62.633c-26.151,0-47.425-21.275-47.425-47.425v-10.361h161.797
			c3.483,15.641,17.46,27.373,34.134,27.373h89.723c16.674,0,30.652-11.732,34.134-27.373h161.797v10.361
			c0,26.151-21.275,47.425-47.425,47.425H147.086c-4.2,0-7.604,3.405-7.604,7.604s3.404,7.604,7.604,7.604h302.28
			c34.536,0,62.633-28.097,62.633-62.633v-17.965C512,385.418,508.596,382.013,504.396,382.013z M300.861,409.387h-89.723
			c-8.207,0-15.263-5.028-18.247-12.165h126.218C316.124,404.359,309.069,409.387,300.861,409.387z"/>
	</g>
</g>
<g>
	<g>
		<path d="M27.132,190.403c-4.2,0-7.604,3.405-7.604,7.604V364.27c0,4.199,3.404,7.604,7.604,7.604s7.604-3.405,7.604-7.604V198.007
			C34.736,193.807,31.332,190.403,27.132,190.403z"/>
	</g>
</g>
<g>
	<g>
		<path d="M348.829,90.035H174.962c-4.2,0-7.604,3.405-7.604,7.604c0,4.199,3.405,7.604,7.604,7.604h173.867
			c4.2,0,7.604-3.405,7.604-7.604C356.433,93.44,353.03,90.035,348.829,90.035z"/>
	</g>
</g>
<g>
	<g>
		<path d="M443.199,90.035h-69.023c-4.2,0-7.604,3.405-7.604,7.604c0,4.199,3.404,7.604,7.604,7.604h69.023
			c18.783,0,34.065,15.281,34.065,34.065V364.27c0,4.199,3.404,7.604,7.604,7.604s7.604-3.405,7.604-7.604V139.308
			C492.472,112.139,470.369,90.035,443.199,90.035z"/>
	</g>
</g>
<g>
	<g>
		<path d="M443.199,120.451H179.524c-4.2,0-7.604,3.405-7.604,7.604s3.404,7.604,7.604,7.604h263.675
			c2.011,0,3.649,1.636,3.649,3.649v212.289H65.152V210.173c0-4.199-3.405-7.604-7.604-7.604c-4.2,0-7.604,3.405-7.604,7.604
			v149.029c0,4.199,3.404,7.604,7.604,7.604h396.904c4.2,0,7.604-3.405,7.604-7.604V139.308
			C462.056,128.911,453.597,120.451,443.199,120.451z"/>
	</g>
</g>
<g>
	<g>
		<path d="M89.727,114.141v-23.91h17.896c4.2,0,7.604-3.405,7.604-7.604s-3.404-7.604-7.604-7.604H89.727v-8.554
			c0-4.199-3.404-7.604-7.604-7.604c-4.2,0-7.604,3.405-7.604,7.604v8.608c-14.203,0.85-25.5,12.669-25.5,27.082
			c0,14.413,11.296,26.234,25.5,27.082v23.91H56.623c-4.2,0-7.604,3.405-7.604,7.604c0,4.199,3.404,7.604,7.604,7.604h17.896v8.554
			c0,4.199,3.404,7.604,7.604,7.604c4.2,0,7.604-3.405,7.604-7.604v-8.608c14.203-0.85,25.5-12.669,25.5-27.082
			C115.226,126.81,103.93,114.99,89.727,114.141z M74.519,113.962c-5.804-0.801-10.292-5.781-10.292-11.802
			c0-6.021,4.488-11.001,10.292-11.802V113.962z M89.727,153.026v-23.605c5.804,0.802,10.292,5.782,10.292,11.802
			C100.018,147.245,95.53,152.225,89.727,153.026z"/>
	</g>
</g>
<g>
	<g>
		<path d="M153.061,84.875c-1.937-3.727-6.529-5.176-10.254-3.238c-3.726,1.938-5.176,6.528-3.238,10.254
			c4.814,9.258,7.254,19.284,7.254,29.8c0,35.676-29.025,64.701-64.7,64.701s-64.7-29.025-64.7-64.701
			c0-35.676,29.025-64.7,64.7-64.7c16.551,0,32.3,6.245,44.344,17.586c3.056,2.877,7.87,2.735,10.749-0.323
			c2.879-3.058,2.734-7.87-0.322-10.749c-14.877-14.008-34.328-21.722-54.771-21.722c-44.061,0-79.908,35.846-79.908,79.907
			c0,44.062,35.846,79.909,79.908,79.909s79.907-35.846,79.907-79.909C162.03,108.891,158.928,96.16,153.061,84.875z"/>
	</g>
</g>
<g>
	<g>
		<path d="M418.277,163.03H250.999c-4.2,0-7.604,3.405-7.604,7.604s3.405,7.604,7.604,7.604h167.278c4.2,0,7.604-3.405,7.604-7.604
			S422.477,163.03,418.277,163.03z"/>
	</g>
</g>
<g>
	<g>
		<path d="M418.277,196.626H250.999c-4.2,0-7.604,3.405-7.604,7.604s3.405,7.604,7.604,7.604h167.278c4.2,0,7.604-3.405,7.604-7.604
			S422.477,196.626,418.277,196.626z"/>
	</g>
</g>
<g>
	<g>
		<path d="M418.278,230.22H303.202c-4.2,0-7.604,3.405-7.604,7.604s3.404,7.604,7.604,7.604h115.075c4.2,0,7.604-3.405,7.604-7.604
			S422.477,230.22,418.278,230.22z"/>
	</g>
</g>
<g>
	<g>
		<path d="M277.853,230.22h-26.854c-4.2,0-7.604,3.405-7.604,7.604s3.404,7.604,7.604,7.604h26.854c4.2,0,7.604-3.405,7.604-7.604
			S282.053,230.22,277.853,230.22z"/>
	</g>
</g>
<g>
	<g>
		<path d="M418.277,263.814H250.999c-4.2,0-7.604,3.405-7.604,7.604s3.405,7.604,7.604,7.604h167.278c4.2,0,7.604-3.405,7.604-7.604
			S422.477,263.814,418.277,263.814z"/>
	</g>
</g>
<g>
</g>
<g>
</g>
<g>
</g>
<g>
</g>
<g>
</g>
<g>
</g>
<g>
</g>
<g>
</g>
<g>
</g>
<g>
</g>
<g>
</g>
<g>
</g>
<g>
</g>
<g>
</g>
<g>
</g>
</svg>
